The.Bad.Lieutenant.Port.of.Call.New.Orleans.2009.SWESUB.DVDRip.XviD.AC3.(5.1).-Zen_Bud


General
Complete name          :The.Bad.Lieutenant.Port.of.Call.New.Orleans.avi
Format                           : AVI
Format/Info                      : Audio Video Interleave
File size                        : 1.37 GiB
Duration                         : 1h 56mn
Overall bit rate                 : 1 680 Kbps

Video

Format                           : MPEG-4 Visual
Codec ID/Hint                    : XviD
Duration                         : 1h 56mn
Bit rate                         : 1 285 Kbps
Width                            : 720 pixels
Height                           : 574 pixels
Display aspect ratio             : 16:9
Stream size                      : 1.05 GiB (76%)
Writing library                  : XviD 1.1.2 (UTC 2006-11-01)

Audio

Format                           : AC-3
Duration                         : 1h 56mn
Bit rate                         : 384 Kbps
Channel(s)                       : 6 channels
Channel positions                : Front: L C R, Side: L R, LFE
Sampling rate                    : 48.0 KHz
Stream size                      : 321 MiB (23%)


